Coordinates
version=1
nRows=5
nColumns=40
inDegrees=yes

Units are S.I. units (second, meters, Newtons, ...)
Angles are in degrees.

endheader
time	pelvis_tilt	pelvis_list	pelvis_rotation	pelvis_tx	pelvis_ty	pelvis_tz	hip_flexion_r	hip_adduction_r	hip_rotation_r	knee_angle_r	knee_angle_r_beta	ankle_angle_r	subtalar_angle_r	mtp_angle_r	hip_flexion_l	hip_adduction_l	hip_rotation_l	knee_angle_l	knee_angle_l_beta	ankle_angle_l	subtalar_angle_l	mtp_angle_l	lumbar_extension	lumbar_bending	lumbar_rotation	arm_flex_r	arm_add_r	arm_rot_r	elbow_flex_r	pro_sup_r	wrist_flex_r	wrist_dev_r	arm_flex_l	arm_add_l	arm_rot_l	elbow_flex_l	pro_sup_l	wrist_flex_l	wrist_dev_l
     16.45750000	     -6.99461389	     -5.40898393	      0.69391005	      1.04107789	      0.92022151	      0.46046928	      3.03250043	     -1.01831139	    -15.31160623	     25.76507332	     25.76507332	     14.89802237	     -1.51329708	     -6.97088045	     29.21225220	     -8.29177322	     -4.40334450	     25.32831178	     25.32831178	      6.63710105	    -12.01338543	      3.95225943	     -8.64806064	      5.13620818	      3.25330564	     34.61064376	    -17.66078494	     -2.42917878	    115.20925414	     44.24823604	      0.00000000	      0.00000000	    -10.91218268	     -7.53039434	     14.74330940	     27.79727561	     44.33757382	      0.00000000	      0.00000000
     16.46857143	     -6.95554675	     -5.21187474	      0.64990944	      1.04119292	      0.92209937	      0.45751728	      4.44718325	     -1.89766803	    -14.79409989	     29.25337929	     29.25337929	     13.48162026	     -3.35949065	     -7.71834935	     28.19169818	     -7.93233967	     -4.74817004	     24.68060192	     24.68060192	      7.01052765	    -11.67662080	      3.68317722	     -8.71138708	      5.06377625	      3.07677114	     31.97443466	    -17.53828438	     -2.33832018	    114.26742165	     44.26804922	      0.00000000	      0.00000000	     -9.47547650	     -7.71271468	     14.61216017	     28.22190989	     44.38831300	      0.00000000	      0.00000000
     16.47964286	     -7.06626051	     -5.09789719	      0.56674507	      1.04108610	      0.92353397	      0.45485369	      6.12647047	     -2.45980814	    -13.72613689	     32.55206605	     32.55206605	     10.25068477	     -7.13863827	    -12.40749641	     27.22951526	     -7.63857203	     -5.03216047	     23.75367073	     23.75367073	      6.74910897	    -11.73621386	      1.87017626	     -8.59548692	      5.07670834	      3.72256577	     28.75453322	    -17.74632711	     -3.93219974	    113.59286210	     44.38745062	      0.00000000	      0.00000000	     -7.46832556	     -7.74887005	     14.12291303	     28.15492797	     44.58353591	      0.00000000	      0.00000000
     16.49071429	     -7.10242580	     -4.89806048	      0.48265022	      1.04083875	      0.92497764	      0.45228306	      8.02469615	     -3.25871202	    -13.02568413	     36.49907207	     36.49907207	      8.61658702	     -9.20296577	    -12.35459147	     26.26448727	     -7.29040368	     -5.42409732	     23.00576987	     23.00576987	      7.08753617	    -11.35305302	      1.68504544	     -8.57217031	      4.99899252	      3.49840782	     26.23164210	    -17.54246660	     -3.72182468	    111.96797028	     44.42576168	      0.00000000	      0.00000000	     -6.03004027	     -8.02055568	     13.92680824	     28.81009474	     44.64335529	      0.00000000	      0.00000000
     16.50178571	     -7.11568452	     -4.82739771	      0.37518786	      1.04040638	      0.92624287	      0.45001307	     10.01103095	     -3.72942939	    -12.05504771	     40.40284789	     40.40284789	      6.83468317	    -11.68308719	    -11.72585615	     25.37836919	     -7.09534678	     -5.71666009	     22.39748348	     22.39748348	      7.29879160	    -11.13177496	      1.26310502	     -8.58956047	      5.03427626	      3.45506972	     23.69665027	    -17.27009029	     -4.03379151	    109.69742215	     44.50507294	      0.00000000	      0.00000000	     -4.49868203	     -8.31803753	     13.55541379	     29.73729664	     44.73504405	      0.00000000	      0.00000000
